<svg xmlns="http://www.w3.org/2000/svg" width="8.547" height="14.079" viewBox="0 0 8.547 14.079">
  <g id="Group_885" data-name="Group 885" transform="translate(-721 -477.922)">
    <g id="right-thin-chevron-svgrepo-com" transform="translate(731.546 444.032) rotate(90)">
      <g id="Group_481" data-name="Group 481" transform="translate(40.968 -0.001)">
        <path id="Path_5883" data-name="Path 5883" d="M43.7,10.546a.727.727,0,0,1-.514-1.24l3.033-3.033L43.181,3.24a.727.727,0,0,1,1.028-1.027l3.547,3.547a.726.726,0,0,1,0,1.027l-3.547,3.547A.723.723,0,0,1,43.7,10.546Z" transform="translate(-40.968 0.001)" fill="#5fd9dd"/>
      </g>
    </g>
    <g id="right-thin-chevron-svgrepo-com-2" data-name="right-thin-chevron-svgrepo-com" transform="translate(719 525.89) rotate(-90)">
      <g id="Group_481-2" data-name="Group 481" transform="translate(40.968 -0.001)">
        <path id="Path_5883-2" data-name="Path 5883" d="M43.7,10.546a.727.727,0,0,1-.514-1.24l3.033-3.033L43.181,3.24a.727.727,0,0,1,1.028-1.027l3.547,3.547a.726.726,0,0,1,0,1.027l-3.547,3.547A.723.723,0,0,1,43.7,10.546Z" transform="translate(-40.968 0.001)" fill="#5fd9dd"/>
      </g>
    </g>
  </g>
</svg>
