<?xml version="1.0" encoding="utf-8"?>
<!-- Generator: Adobe Illustrator 25.2.0, SVG Export Plug-In . SVG Version: 6.00 Build 0)  -->
<svg version="1.1"
	 id="Layer_1" xmlns:cc="http://creativecommons.org/ns#" xmlns:dc="http://purl.org/dc/elements/1.1/" xmlns:inkscape="http://www.inkscape.org/namespaces/inkscape" xmlns:rdf="http://www.w3.org/1999/02/22-rdf-syntax-ns#" xmlns:sodipodi="http://sodipodi.sourceforge.net/DTD/sodipodi-0.dtd" xmlns:svg="http://www.w3.org/2000/svg"
	 xmlns="http://www.w3.org/2000/svg" xmlns:xlink="http://www.w3.org/1999/xlink" x="0px" y="0px" viewBox="0 0 80 56"
	 style="enable-background:new 0 0 80 56;" xml:space="preserve">
<style type="text/css">
	.st0{fill:#5FD9DD;}
</style>
<g transform="translate(0,-952.36218)">
	<path class="st0" d="M6,952.36c-0.93,0-1.81,0.22-2.59,0.59l33.78,34.16c1.57,1.59,3.99,1.59,5.56,0l33.84-34.16
		c-0.78-0.37-1.66-0.59-2.59-0.59H6z M79.41,955.77l-25.38,25.66l25.38,23.56c0.38-0.79,0.59-1.69,0.59-2.62v-44
		C80,957.43,79.78,956.55,79.41,955.77z M0.56,955.8C0.2,956.57,0,957.45,0,958.36v44c0,0.94,0.21,1.83,0.59,2.62l25.34-23.53
		L0.56,955.8L0.56,955.8z M51.19,984.27l-5.59,5.66c-3.09,3.12-8.16,3.13-11.25,0l-5.56-5.62l-25.31,23.5
		c0.77,0.36,1.63,0.56,2.53,0.56h68c0.91,0,1.76-0.21,2.53-0.56L51.19,984.27L51.19,984.27z"/>
</g>
</svg>
