<svg xmlns="http://www.w3.org/2000/svg" width="87.554" height="75.645" viewBox="0 0 87.554 75.645">
  <g id="Groupe_268" data-name="Groupe 268" transform="translate(-768.268 -607.52)">
    <path id="Soustraction_5" data-name="Soustraction 5" d="M47.449,39.346H39.361V36.121l8.089,1.11v2.114Zm-37.218,0H0V36.031l10.231,2.187v1.127Zm27.727-.132h0L29.59,37.879l-.226-3.13,8.094,1.111.5,3.353ZM26.086,37.32h0l-8.112-1.294.369-2.789,8,1.1-.257,2.985ZM10.231,34.791h0L0,33.159V30.72l10.231,1.4V34.79Zm37.218-.061h0l-8.088-1v-3.8l8.089.714v4.089ZM37.1,33.45h0L18.616,31.163l.4-3.034,17.521,1.547.562,3.772ZM10.231,30.126h0L0,28.861V26.45l10.231.9v2.772Zm37.218-.619h0l-8.088-.714V24.579l8.089.43v4.5Zm-11.082-.979h0l-7.346-.649c-.138-1.2-.276-2.507-.412-3.872l7.142.38.616,4.14Zm-10.024-.885h0l-7.177-.634.46-3.479,7.094.377c-.162,1.429-.289,2.686-.376,3.735ZM10.231,26.22h0L0,25.316V22.487l10.231.544v3.188Zm37.218-1.777h0l-8.088-.43V8.24h8.089v16.2Zm-11.783-.626h0l-7.112-.378c-.24-2.463-.482-5.237-.72-8.244-.433,3.139-.786,5.881-1.049,8.15L19.7,22.968,21.646,8.24h11.7l2.319,15.576ZM16.55,22.8h0L0,21.921V0H17.328V7.874h-7.1v7.461H16.55V22.8Z" transform="translate(807.873 624.174)" fill="#fff" stroke="rgba(0,0,0,0)" stroke-miterlimit="10" stroke-width="1"/>
    <path id="Soustraction_4" data-name="Soustraction 4" d="M.2,74.6h0c-.2-.066-.2-.2-.2-.46,0-.126.062-.263.2-.263a.3.3,0,0,0,.213-.151.283.283,0,0,0-.016-.244.233.233,0,0,0-.033-.1.233.233,0,0,1-.033-.1.289.289,0,0,0,.066-.2,1.892,1.892,0,0,1,.546-.632c.087-.076.169-.148.242-.221a.568.568,0,0,0,.188-.209,1.136,1.136,0,0,1,.14-.185c.044-.065.088-.139.131-.211a2.146,2.146,0,0,1,.263-.38.606.606,0,0,1,.121-.079c.07-.039.142-.079.142-.118a.615.615,0,0,1,.26-.46c.024-.022.047-.043.068-.065a.686.686,0,0,0,.459-.657v-.263a2.977,2.977,0,0,1-.269.364,1.855,1.855,0,0,0-.322.489H2.3a.717.717,0,0,0,.066-.328,3.067,3.067,0,0,0,.328-.657.065.065,0,0,0,.066-.066,1.546,1.546,0,0,0,.481-.561,3.525,3.525,0,0,1,.242-.358.5.5,0,0,0,.131-.263.5.5,0,0,1,.263-.46,2.569,2.569,0,0,0,.263-.328,2.57,2.57,0,0,1,.263-.328,2.683,2.683,0,0,0,.328-.591,4.513,4.513,0,0,1,.534-.628c.126-.131.256-.266.386-.422a.5.5,0,0,0,.131-.263,1.562,1.562,0,0,1,.277-.371,1.778,1.778,0,0,0,.183-.22,5.444,5.444,0,0,0,.364-.578c.05-.088.1-.179.161-.276.065-.131.132-.28.2-.425s.132-.3.2-.429a.362.362,0,0,0,.2-.328.778.778,0,0,0,.263-.46l.005-.01c.192-.384.391-.781.586-1.237.321-.514.584-.972.837-1.416l.017-.029a1.535,1.535,0,0,1,.15-.187.728.728,0,0,0,.178-.272c0-.054.045-.064.1-.075.073-.015.165-.034.165-.188a.4.4,0,0,1,.066-.263,2.579,2.579,0,0,1,.329-.614,4.2,4.2,0,0,0,.262-.437.859.859,0,0,1,.135-.172,1.526,1.526,0,0,0,.259-.353c.02-.04.046-.086.074-.135a2.335,2.335,0,0,0,.189-.39.847.847,0,0,1,.236-.362,1.283,1.283,0,0,0,.223-.295,2.286,2.286,0,0,0,.235-.673l.028-.114.005-.012a11.815,11.815,0,0,0,.52-1.367,1.153,1.153,0,0,1,.526-.591,1.243,1.243,0,0,1,.525-.131.5.5,0,0,1,.132-.263c.051-.154.136-.25.22-.25a.156.156,0,0,1,.109.053.046.046,0,0,0,.033.013.341.341,0,0,0,.229-.276,1.89,1.89,0,0,1,.722-1.248c.083-.111.155-.222.23-.339a5.779,5.779,0,0,1,.361-.515.346.346,0,0,0,.066-.1.342.342,0,0,1,.066-.1.94.94,0,0,1,.132.2,2.4,2.4,0,0,0,.919-.46,2.219,2.219,0,0,1-.526-.2,1.241,1.241,0,0,0,.167-.144.674.674,0,0,1,.489-.25.764.764,0,0,0,.46-.328,1.029,1.029,0,0,1,.269-.5,1.8,1.8,0,0,0,.125-.16,1.59,1.59,0,0,0,.211-.334l2.871.614a2.465,2.465,0,0,1-.127.344,2.374,2.374,0,0,0-.131.361h-.2a.43.43,0,0,1-.041.176.235.235,0,0,0-.025.086c0,.132,0,.132-.065.2a.027.027,0,0,0-.029.022.248.248,0,0,0,0,.06.386.386,0,0,1-.033.181,1.371,1.371,0,0,1,.189-.221.681.681,0,0,0,.14-.173c0-.072.079-.124.162-.179a.466.466,0,0,0,.167-.149l.066.132a2.849,2.849,0,0,1-.394.788c-.084,0-.114.08-.143.157a.308.308,0,0,1-.055.106c-.066.131-.149.265-.23.394s-.164.263-.23.394a3.776,3.776,0,0,1-.066-.919.8.8,0,0,0-.066-.657,1.342,1.342,0,0,0-.148.892c.008.093.017.19.017.289a.918.918,0,0,1-.167.06.362.362,0,0,0-.161.072c0,.173.02.248.074.287a.614.614,0,0,0,.319.041.569.569,0,0,1-.263.657,1.1,1.1,0,0,0-.183.314,1.979,1.979,0,0,1-.145.277.491.491,0,0,1-.164-.033.492.492,0,0,0-.165-.033c0,.4,0,.657-.46.722a.29.29,0,0,1-.137-.06c-.035-.022-.075-.047-.126-.072-.066.066-.066.066-.066.132-.048.065-.088.128-.126.188-.1.157-.176.281-.322.281a.319.319,0,0,1-.077-.01c-.06.045-.124.087-.186.128-.216.142-.419.275-.47.529a.581.581,0,0,1-.263.328.308.308,0,0,0-.074.3.8.8,0,0,1,.008.1.346.346,0,0,1,.1-.066.347.347,0,0,0,.1-.065.248.248,0,0,1,.081.249.145.145,0,0,1-.147.08.7.7,0,0,0-.328.1.706.706,0,0,1-.329.1c-.065.066-.065.066-.065.132a1.062,1.062,0,0,1-.308.675l-.086.112-.113.169-.008.012-.273.41a3.356,3.356,0,0,0-.591.853.946.946,0,0,0-.307.527l-.021.064a1.845,1.845,0,0,1-.591.854V58.05a.757.757,0,0,0-.071.546,1.1,1.1,0,0,1,.005.374c-.46.2-.593.664-.722,1.116,0,.065,0,.132-.066.132-.24.1-.27.337-.294.531a1.044,1.044,0,0,1-.035.192c-.031.154-.047.292-.063.425a3.354,3.354,0,0,1-.069.428v.066c-.076.051-.142.092-.2.127a1.183,1.183,0,0,0-.194.135,3.188,3.188,0,0,1-.2.46.7.7,0,0,1-.119-.613.6.6,0,0,0-.078-.5.429.429,0,0,0-.069.19.888.888,0,0,1-.062.2.206.206,0,0,0-.066-.131.769.769,0,0,0-.062.075.608.608,0,0,1-.2.188,1.137,1.137,0,0,0,.328.131c.066.066.066.264.066.329.163.326.038.639-.394.985a.5.5,0,0,0-.2.131c-.2.2-.2.2-.525.263a.28.28,0,0,1,.194.191.214.214,0,0,1-.063.2,1.12,1.12,0,0,0-.394.394l-.132.132c-.134.268-.264.46-.46.525a.9.9,0,0,1-.263.2,2.1,2.1,0,0,1-.788.722,1.432,1.432,0,0,1-.1.164,1.455,1.455,0,0,0-.1.164.305.305,0,0,0-.049.074.338.338,0,0,1-.213.188,2.751,2.751,0,0,1-.188.307,2.474,2.474,0,0,0-.272.481v.065c-.057.076-.113.156-.172.24a4.455,4.455,0,0,1-.485.614c-.039.058-.078.111-.115.161a1.294,1.294,0,0,0-.213.364A4.067,4.067,0,0,1,5.254,70.2l0,0a1.436,1.436,0,0,1-.2.325c-.033-.162-.1-.255-.185-.255s-.149.069-.209.189c-.142.142-.28.3-.414.451-.112.127-.217.246-.308.337a.882.882,0,0,1-.526.459,1.756,1.756,0,0,0-.657.394.568.568,0,0,0-.394.722.512.512,0,0,1-.033.132.509.509,0,0,0-.033.131.385.385,0,0,0,.132.328,2.762,2.762,0,0,0-.788.526.607.607,0,0,1-.121.079c-.07.039-.142.079-.142.118-.045.09-.124.186-.191.186a.081.081,0,0,1-.071-.054,1.511,1.511,0,0,0-.764.245c-.053.029-.1.057-.155.083ZM10.376,62.187h0a1.432,1.432,0,0,1-.263.328c-.07.044-.137.082-.2.116-.2.116-.331.192-.363.323s.035.306.229.611l.058-.028a.551.551,0,0,0,.336-.3h.015c.1,0,.165-.017.187-.053a.078.078,0,0,0,0-.078c-.065-.065-.132-.132-.2-.132a.4.4,0,0,0-.263-.066v-.066h.525c.016-.049.029-.1.041-.139a1.762,1.762,0,0,1,.222-.517h-.328Zm2.036-2.626a1.507,1.507,0,0,0-.483.431,1.507,1.507,0,0,1-.371.357.5.5,0,0,1-.066.525c-.2.326-.134.521.066.919a.244.244,0,0,1,.2-.065.836.836,0,0,1,0-.788c.131-.066.2-.132.2-.2a.513.513,0,0,1,.132-.526A1.04,1.04,0,0,0,12.411,59.56Zm-3.284.328h0a1.3,1.3,0,0,0-.053.124A.346.346,0,0,1,9,60.151h.066c.04,0,.056-.025.077-.059a.361.361,0,0,1,.054-.072c-.066,0-.066,0-.066-.132Zm4.86-3.218a.865.865,0,0,1-.025.173,1.605,1.605,0,0,0-.041.353.861.861,0,0,1,.393-.3l.067-.032a.576.576,0,0,0-.3-.167l-.1-.031Zm4.794-5.91-.007.007a8.547,8.547,0,0,0-.715.781c-.064.064-.131.131-.131.2.034.137.109.2.228.2a.593.593,0,0,0,.065,0l.035,0h.131v-.131a.5.5,0,0,0-.131-.263h.525a.36.36,0,0,1-.123-.276.249.249,0,0,1,.123-.183.4.4,0,0,0,.066-.263ZM1.839,71.052h0l.261-.261a.241.241,0,0,1-.261.263ZM32.177,69.8h0a2.184,2.184,0,0,1-.066-1.116.61.61,0,0,1-.328-.657v-.459l-.03-.147A8.8,8.8,0,0,1,31.52,65.6a.5.5,0,0,0,.066-.263.241.241,0,0,0-.066-.2.59.59,0,0,0-.066.328A1.972,1.972,0,0,1,31,64.332l-.007-.044a6.1,6.1,0,0,0-.263-1.051A3.221,3.221,0,0,0,30.7,62.9a3.973,3.973,0,0,1-.036-.448,3.364,3.364,0,0,0-.131-.41c-.021-.057-.043-.116-.065-.182a2.1,2.1,0,0,1-.2-.919A.608.608,0,0,1,30.2,60.7a.488.488,0,0,0-.126-.287v-.393h0a.1.1,0,0,1,.06.024.2.2,0,0,0,.135.041.224.224,0,0,1,.131-.065l-.066-.132h-.2c0,.05-.014.131-.065.132a.509.509,0,0,0-.132-.2.239.239,0,0,1-.158-.123.249.249,0,0,1,.027-.206c.066-.2.065-.263-.066-.394a.779.779,0,0,0-.074-.061.6.6,0,0,1-.188-.2,1.041,1.041,0,0,1-.151-.363c-.013-.051-.027-.1-.047-.162a1.758,1.758,0,0,0-.328-.722.675.675,0,0,1-.065-.788.4.4,0,0,0-.066-.263.977.977,0,0,1-.066-.394,1.8,1.8,0,0,1-.051-.212.746.746,0,0,0-.146-.379c-.049-.114-.1-.225-.154-.332a2.29,2.29,0,0,1-.306-.982,1.747,1.747,0,0,0-.2-.648,2.271,2.271,0,0,1-.132-.338c-.013-.038-.027-.077-.043-.119a.878.878,0,0,1-.088-.537v-.066l-.017-.081a.9.9,0,0,1,.082-.773c.042-.042.03-.139.017-.252a1.748,1.748,0,0,1-.017-.208.742.742,0,0,1-.46-.788V49.71a.244.244,0,0,0,0-.062l1.929.412.046.043-.388.388-.006.006a1.311,1.311,0,0,1,.258.041.823.823,0,0,0,.136.025,2.514,2.514,0,0,0-.035.276,1,1,0,0,1-.179.588l.039-.016a.312.312,0,0,0,.109-.06,1.091,1.091,0,0,0,.014.14.575.575,0,0,1-.014.319,1.317,1.317,0,0,1-.131.262,1.308,1.308,0,0,0-.132.263.929.929,0,0,1,.137.191c.074.125.138.233.294.233a.51.51,0,0,0,.161-.03c0,.066-.067.133-.132.2a1.443,1.443,0,0,0,.2.328.512.512,0,0,0,.2.066c.206.069.263.139.263.328a2.543,2.543,0,0,0,.066.492,2.545,2.545,0,0,1,.066.492,2.491,2.491,0,0,0,.028.324,1.531,1.531,0,0,1-.028.727.747.747,0,0,0-.146.38,1.811,1.811,0,0,1-.051.212c-.065,0-.065.067-.065.131,0,.237.092.263.131.263.065,0,.131-.13.132-.131.082-.123.109-.189.1-.238s-.038-.061-.1-.09a.438.438,0,0,1,.143-.3,1.65,1.65,0,0,0,.12-.156c.038.226.1.449.153.665.042.161.082.312.11.452a3.086,3.086,0,0,0,.036.412,2.478,2.478,0,0,1,.029.311.238.238,0,0,0-.013.2.218.218,0,0,1,.013.062,1.062,1.062,0,0,1,.2.591.333.333,0,0,1,.065.131.33.33,0,0,0,.066.132l.018.069a1.432,1.432,0,0,1,.048.719.648.648,0,0,1-.074-.046.309.309,0,0,0-.164-.072c-.074,0-.147.06-.221.184a.129.129,0,0,0,.13.1.666.666,0,0,0,.218-.062c.036-.014.074-.029.112-.042l0,0a3.139,3.139,0,0,0-.195.456c.131.2.131.2-.066.525a.674.674,0,0,1,.2.919h.328c-.131.132-.2.2-.2.263s.066.131.2.262a.284.284,0,0,1-.049.111.466.466,0,0,0-.082.218.352.352,0,0,1,.2.263v2.3a.3.3,0,0,1,.168-.056.556.556,0,0,1,.222.066,1.406,1.406,0,0,0,.135.055c.049,0,.1.112.147.22.016.037.033.075.05.108a.977.977,0,0,1-.394.066.242.242,0,0,1-.066.2h.328c0,.216.035.3.066.329h.328c.035.122.075.241.114.356a3.055,3.055,0,0,1,.215,1.022.707.707,0,0,0-.328-.2,1.7,1.7,0,0,0-.234.315c-.028.045-.059.093-.094.145.261.2.2.392.066.722a.985.985,0,0,1,.394.065.468.468,0,0,0-.2.394H32.7a2.371,2.371,0,0,1-.131.722c-.027.041-.052.082-.075.121C32.4,69.684,32.333,69.8,32.177,69.8ZM29.156,52.863a.064.064,0,0,1-.066.065l.066.132v.066h.066a.513.513,0,0,0-.033-.132A.509.509,0,0,1,29.156,52.863Zm3.677,15.3h0a1.383,1.383,0,0,1-.393-.262,1.76,1.76,0,0,1,.2-.165,1.777,1.777,0,0,0,.2-.163v.59Zm-.788-4.991h0c-.132-.066-.2-.1-.2-.14s.042-.09.14-.187c.131.132.131.132.065.328Zm-.458-.331h0c0-.192,0-.195.127-.258a.371.371,0,0,0-.074.136A1.293,1.293,0,0,1,31.587,62.841Zm.129-.26h0c-.065-.262-.065-.262.132-.393a.261.261,0,0,1,.069.2c-.014.075-.085.119-.142.155a.355.355,0,0,0-.058.041Zm-.328-2.43h0c-.113-.075-.228-.164-.228-.256,0-.049.032-.094.1-.138.151.05.147.1.138.24,0,.041-.007.092-.007.153Zm-1.815-8.3c-.064,0-.114-.054-.172-.116l-.048-.05.043-.023a.334.334,0,0,1,.157-.053.362.362,0,0,1,.194.076v.066A.268.268,0,0,1,29.574,51.846Zm-8.823-2.793h-.065a2.491,2.491,0,0,1,.033-.362,2.487,2.487,0,0,0,.033-.361c.065.129.131.131.132.131.05-.05.095-.1.138-.145l.222.047-.085.08a.968.968,0,0,0-.341.477l-.066.131Zm8.3-1.345h0l-.3-.048a.592.592,0,0,1,.336-.314.963.963,0,0,1-.1-.476.7.7,0,0,0-.158-.509,2.513,2.513,0,0,0-.329.033,2.5,2.5,0,0,1-.328.033.066.066,0,0,0,.017.046.075.075,0,0,0,.048.02c.149.1.171.25.066.46-.012.023-.025.046-.039.07a.319.319,0,0,0-.026.389h.012a.234.234,0,0,0,.186-.065c.132.065.132.065.132.131a.326.326,0,0,1-.066.132l-.007.01-1.538-.245a2.8,2.8,0,0,1-.163-.947.555.555,0,0,0-.132-.394,4.551,4.551,0,0,0-.328-.853.126.126,0,0,0-.018-.061l2.12.291c0,.012,0,.023,0,.033a.658.658,0,0,0,.076.277.472.472,0,0,1,.056.183c0,.262.066.328.263.394a.5.5,0,0,1,.066-.263c-.143-.071-.2-.121-.206-.171s.038-.089.141-.158a2.733,2.733,0,0,1,.228,2Zm-.819-2.267c-.065,0-.065,0-.065.066a.98.98,0,0,0,.065.46.388.388,0,0,1-.086.061.772.772,0,0,0-.177.135h.263c.046-.091.06-.15.042-.178a.046.046,0,0,0-.042-.019.489.489,0,0,1,.033-.164.486.486,0,0,0,.033-.164.645.645,0,0,1-.066-.2Zm.526,1.445h0l-.057-.057-.27-.27h.005a.382.382,0,0,0,.323-.13v.46Zm-6.249-.221h0l-.186-.03v-.668a.064.064,0,0,1-.066-.066.086.086,0,0,1-.033.066.085.085,0,0,0-.033.065v.582l-3.546-.566c.012-.027.024-.054.035-.081a1.129,1.129,0,0,1,.1-.2c0-.113.055-.328.263-.328a1.237,1.237,0,0,0,.46-.394c.173-.259.351-.527.51-.795l3.805.522-.038.008-.008,0c-.041,0-.056.025-.078.06a.367.367,0,0,1-.054.072.236.236,0,0,1-.086-.025.431.431,0,0,0-.176-.041v.263a1.445,1.445,0,0,0-.328.2,1.078,1.078,0,0,1,.2.394,4.71,4.71,0,0,0-.325.585l0,.007a.408.408,0,0,1-.073-.357,1.011,1.011,0,0,0,.008-.1v-.591a1.288,1.288,0,0,1-.066-.526.346.346,0,0,0-.131.46c0,.164-.017.331-.033.492s-.033.329-.033.493a3.223,3.223,0,0,0-.063.4c0,.035-.008.069-.012.1Zm6.178-2.94h0l-7.763-.96a6.609,6.609,0,0,1,.572-.725c.077-.089.157-.181.236-.276.09-.045.118-.182.149-.327a1.766,1.766,0,0,1,.049-.2.2.2,0,0,1,.039-.15l5.767.509a.234.234,0,0,1-.027.034.878.878,0,0,0,.328.394c.064-.064.132-.131.132-.2.011-.045.02-.092.029-.138l.01-.052.7.062c.046.022.046.126.046.127-.033.1-.083.216-.132.33s-.1.229-.131.327a.4.4,0,0,0-.151.3.326.326,0,0,0,.151.229H28.69a.77.77,0,0,0-.211.04.47.47,0,0,1-.111.025.791.791,0,0,1,.323.647Zm-1.768-1.37a.427.427,0,0,1-.09.123c-.025.025-.041.041-.041.074,0,.069.067.2.131.2a.679.679,0,0,0,.066-.2A.516.516,0,0,0,26.923,42.355Zm.132-.328h0l-.066.132a.432.432,0,0,1,.177.041.235.235,0,0,0,.086.024l-.1.1-.1.1a.8.8,0,0,0,.112.009.436.436,0,0,0,.41-.281.948.948,0,0,1,.135-.187c-.057-.057-.1-.085-.136-.085s-.064.043-.085.085a.258.258,0,0,1-.041.066h-.394Zm2.005-1.445h0l-.339-.03a.746.746,0,0,0,.107-.3l.005,0c.153.154.237.239.227.324Zm-1.086-.1h0l-4.946-.437c.014-.03.027-.059.04-.088s.031-.07.047-.1a.5.5,0,0,0,.066-.263c-.064-.191-.007-.324.2-.459a1.455,1.455,0,0,0,.441-.525,2.084,2.084,0,0,1,.282-.395.339.339,0,0,1,.014-.068c.026-.1.065-.244-.043-.309l3.867.206c-.112.042-.162.135-.162.3v.525h0a1.057,1.057,0,0,0,.169-.019,1.242,1.242,0,0,1,.2-.023.371.371,0,0,1,.28.108c0,.083-.1.114-.2.141a.348.348,0,0,0-.132.056.762.762,0,0,1-.328.459.789.789,0,0,0,.074.061.608.608,0,0,1,.189.2,2.119,2.119,0,0,0-.066.625Zm-.854-1.02c-.03.059-.045.1-.027.14s.111.087.289.123l-.006,0c-.127-.129-.191-.194-.191-.259Zm1.838.525v0a.755.755,0,0,0,.071-.242c.017-.109.027-.175.191-.216a.231.231,0,0,1,.045.192c-.024.091-.119.173-.307.267Zm-.788-.066h-.066V39.6a.31.31,0,0,0,.107-.118.37.37,0,0,1,.353-.211c.025-.05.05-.09.071-.125a.29.29,0,0,0,.06-.137.894.894,0,0,0-.141-.239.98.98,0,0,1-.188-.352H28.7a.5.5,0,0,0,.263-.066c-.013.027-.027.051-.04.075a.564.564,0,0,0-.091.319.318.318,0,0,1,.247.1.174.174,0,0,1,.015.164.2.2,0,0,1-.135-.041.1.1,0,0,0-.061-.024,1.293,1.293,0,0,1-.033.23,1.293,1.293,0,0,0-.033.23.29.29,0,0,1-.314.221A1.091,1.091,0,0,1,28.3,39.6a.38.38,0,0,0-.087.186c-.011.038-.025.084-.043.141Zm.728-2.393h-.016c-.021-.06-.043-.107-.061-.148a.489.489,0,0,1-.06-.215c-.1.032-.129.124-.161.213a.46.46,0,0,1-.064.133l-.135-.007c-.029-.047-.064-.094-.1-.139a1.365,1.365,0,0,1-.132-.2c-.044.022-.081.044-.117.066a1.247,1.247,0,0,1-.277.131.255.255,0,0,0,.021.109l-3.523-.187a.894.894,0,0,1,.35-.447.361.361,0,0,0,.072-.161.919.919,0,0,1,.06-.167.7.7,0,0,0,.2-.328c.06,0,.1-.014.115-.042a.163.163,0,0,0,.016-.089.575.575,0,0,1,0-.521.938.938,0,0,0,.065-.464c0-.109.007-.228.015-.343a2.32,2.32,0,0,0-.015-.643V33.1a13.137,13.137,0,0,1-.394-2.232c-.037-.259-.095-.516-.15-.764-.043-.194-.084-.377-.113-.549-.131-.723-.2-1.39-.263-2.036a3.286,3.286,0,0,1-.058-.356,3.618,3.618,0,0,0-.139-.694,3.888,3.888,0,0,1-.328-1.248v-.2a.218.218,0,0,1,.013-.062.238.238,0,0,0-.013-.2,1.209,1.209,0,0,1-.149-.476c-.014-.08-.028-.163-.049-.247l-.029-.086a1.524,1.524,0,0,1-.1-1.03.161.161,0,0,0-.049-.086.276.276,0,0,1-.082-.176.294.294,0,0,1-.066-.2.516.516,0,0,0,.105-.361.51.51,0,0,1,.157-.427.448.448,0,0,1-.328-.591,2.053,2.053,0,0,0-.131-.525v-.263a14.9,14.9,0,0,1-.137-2.743v0c0-.22.005-.447.005-.668,0-.3-.017-.58-.033-.854s-.033-.558-.033-.853a.327.327,0,0,0-.066-.132.326.326,0,0,1-.065-.131,15.993,15.993,0,0,0-.2,2.495.912.912,0,0,1-.074-.529c0-.062.009-.125.009-.194a2.69,2.69,0,0,1-.066-.722V14.644h-.066a1.838,1.838,0,0,0-.066.657c-.131-.065-.2-.132-.2-.2,0-.23-.017-.447-.033-.657s-.033-.427-.033-.656c-.033-.263-.05-.513-.066-.755s-.033-.493-.066-.756a7.241,7.241,0,0,1,.132-1.707v-.2A1.542,1.542,0,0,1,21.8,9.5c0-.078.005-.158.005-.238,0-.183-.014-.4-.029-.62-.018-.267-.036-.543-.036-.825a1.056,1.056,0,0,0-.2-.525,6.777,6.777,0,0,0-.164-.788,6.773,6.773,0,0,1-.164-.788.635.635,0,0,1,.46-.722c.027-.027.054-.051.08-.075A.679.679,0,0,0,22,4.531a.918.918,0,0,1-.2-.263h0l0,0a1.023,1.023,0,0,1,.392-.26c-.135.339-.194.528.066.788a1.294,1.294,0,0,0,.054-.125.347.347,0,0,1,.078-.137V4.006h.065c.133.2.064.331-.064.524v0a1.382,1.382,0,0,1,.263.394.576.576,0,0,0,.22-.466.847.847,0,0,1,.108-.388.362.362,0,0,0,.248.146.864.864,0,0,1,.146.051.626.626,0,0,0,.459.131c.738.074,1.3.138,1.707.2a.291.291,0,0,0,.111-.02.106.106,0,0,1,.035-.009.075.075,0,0,1,.051.029.676.676,0,0,0,.478.225c.058.011.118.023.179.038.127.036.243.072.356.107a5.425,5.425,0,0,0,.892.221,1.218,1.218,0,0,0,.46-.132,1.87,1.87,0,0,1,.56-.143c.1-.016.2-.03.294-.053,0,.263,0,.263-.394.328v.132c0,.033-.033.049-.066.065s-.066.033-.066.066h.132a1.185,1.185,0,0,1,.372-.066.844.844,0,0,1,.613.263c.131.065.131.131.131.328a1.408,1.408,0,0,1,.013.507c-.007.079-.013.154-.013.215l.01.059a1.009,1.009,0,0,1-.207.991.348.348,0,0,1,.2.046.108.108,0,0,0,.059.02.86.86,0,0,1-.024.173,1.6,1.6,0,0,0-.041.353h-.328c.01.029.018.057.026.084a.5.5,0,0,0,.3.375.16.16,0,0,1,.144.056A.145.145,0,0,1,29.813,9a.423.423,0,0,1-.267.093.285.285,0,0,1-.127-.027.178.178,0,0,0-.131-.033A.178.178,0,0,1,29.156,9a.873.873,0,0,0-.327.392.76.76,0,0,1-.12.1.247.247,0,0,0-.143.234H28.7a.273.273,0,0,1,.271-.164,1.134,1.134,0,0,1,.166.017,1.054,1.054,0,0,0,.154.016.142.142,0,0,1,.132.132.642.642,0,0,1,.014.333.811.811,0,0,0-.014.127v.2a4.9,4.9,0,0,0,.263.919.493.493,0,0,1-.139.4.5.5,0,0,0-.123.257,1.532,1.532,0,0,1-.132.526.938.938,0,0,0,.2.065.924.924,0,0,1,.2.066c.07.278.059.463-.2.591a.388.388,0,0,0-.093.29.164.164,0,0,0,.093.1.6.6,0,0,1,.2.59c0,.043,0,.088,0,.132h.263c-.019.057-.032.1-.043.141a.381.381,0,0,1-.088.187.384.384,0,0,0-.165-.066.385.385,0,0,1-.164-.065.15.15,0,0,0-.041.13.183.183,0,0,0,.107.133c.137.069.195.138.131.328a1.059,1.059,0,0,0-.158.42c-.011.05-.023.107-.039.171a.423.423,0,0,0-.23.256.6.6,0,0,0,.1.466c.132.132.131.2.066.526h-.066a.938.938,0,0,0-.231-.027,2.341,2.341,0,0,0-.553.092h0a.719.719,0,0,1-.329.066v-.919h-.025a.543.543,0,0,0-.369.13v.394a.223.223,0,0,1-.068.013.068.068,0,0,1-.054-.021c-.028-.032-.02-.1-.014-.145a.386.386,0,0,0,0-.045v-.394a.155.155,0,0,0-.084-.031c-.051,0-.087.041-.128.089a.312.312,0,0,1-.248.139v-.263a.792.792,0,0,1-.217-.041.47.47,0,0,0-.111-.025c-.151,0-.262.013-.314.076s-.049.147-.014.318h.2a.209.209,0,0,1,.091-.026c.067,0,.106.057.106.157a.958.958,0,0,0-.072.234,2.131,2.131,0,0,1-.059.226.235.235,0,0,1,.1.032.236.236,0,0,0,.1.033v0a1.293,1.293,0,0,1-.066.455.242.242,0,0,0-.066.2.957.957,0,0,1,.137.634c0,.05-.005.1-.005.154a.163.163,0,0,0-.086.049.276.276,0,0,1-.176.082l.237.118.157.078a.5.5,0,0,1-.066.263,1.086,1.086,0,0,1,.525.163l.066.035a.8.8,0,0,0,.041.217.47.47,0,0,1,.025.111.279.279,0,0,0-.113.292.336.336,0,0,1-.019.168h-.014a.5.5,0,0,0-.249.065.5.5,0,0,0,.263.066.784.784,0,0,0,.009.1c.012.1.023.179-.074.228-.131.066-.131.132-.131.263h-.394a.343.343,0,0,0,.132.263l-.263.263c.03.015.06.027.089.038a.33.33,0,0,1,.239.225.137.137,0,0,1,.092.123c0,.057-.061.108-.157.139,0,.264-.13.328-.328.394-.033,0-.049.017-.082.049a1.069,1.069,0,0,1-.181.148.3.3,0,0,1,.328.2c.046.023.071.048.075.075s-.035.082-.075.122c-.131.033-.2.049-.2.081s.041.083.14.182a.215.215,0,0,0,.032.116.044.044,0,0,0,.033.015.428.428,0,0,0-.292.248.659.659,0,0,1-.1.146.834.834,0,0,0-.033-.2.836.836,0,0,1-.033-.2v-.525c-.336.067-.4.2-.46.525v-.013c0-.394,0-.842.133-.972a.31.31,0,0,0,.1-.259.177.177,0,0,0-.1-.135.209.209,0,0,1-.161-.2.437.437,0,0,0-.036-.126.408.408,0,0,0-.131.526.317.317,0,0,1,.013.449c-.024.041-.052.087-.079.142a.507.507,0,0,1,.2.46c-.026.131-.034.218,0,.272s.155.083.355.116l.036.006a1.135,1.135,0,0,0-.394.394.346.346,0,0,0,.1.066.346.346,0,0,1,.1.066c.058.019.105.033.143.044a.379.379,0,0,1,.186.087.361.361,0,0,1,.161-.072.919.919,0,0,0,.167-.06c.037,0,.053-.042.072-.09a.307.307,0,0,1,.059-.107c.157.052.147.147.137.248a.792.792,0,0,0-.005.08h-.263v.065a.352.352,0,0,0,.292.215.323.323,0,0,0,.1-.017.4.4,0,0,1,.065-.263.5.5,0,0,0,.263.065.233.233,0,0,1,.065-.131c.066,0,.066,0,.132.066a.216.216,0,0,0-.037.128c-.008.076-.016.162-.094.2a.915.915,0,0,0-.359.143c-.036.02-.07.039-.1.054a.4.4,0,0,0-.066.394c.066,0,.066.067.066.132,0,.033-.033.066-.066.1s-.066.066-.066.1l.132.263a.919.919,0,0,0-.168-.06.366.366,0,0,1-.161-.071.7.7,0,0,1-.131.512,2.824,2.824,0,0,0-.133.275,1.442,1.442,0,0,0,.138.216c.035.048.075.1.125.178,0-.07.067-.2.131-.2a.512.512,0,0,1,.066.2.923.923,0,0,0-.363.29c-.033.037-.065.073-.1.1v-.394h-.2a.837.837,0,0,0-.066.394.516.516,0,0,0,.263.263.387.387,0,0,1-.086.062.777.777,0,0,0-.176.135,1.01,1.01,0,0,1,.722.525.379.379,0,0,0,.178-.17.39.39,0,0,1,.348-.224c-.025.075-.04.14-.054.2a.413.413,0,0,1-.078.2.546.546,0,0,0,.227.076.23.23,0,0,0,.167-.076.493.493,0,0,1,.328-.066h0a2.141,2.141,0,0,1-.014-.6c.007-.1.015-.206.015-.318a.237.237,0,0,1,.025-.087.431.431,0,0,0,.041-.176c.131.131.131.2.131.394a2.312,2.312,0,0,1-.163.69l-.033.1v0h0c0,.128-.11.144-.207.159a.234.234,0,0,0-.121.037c.12.12.2.167.27.167.1,0,.189-.075.36-.212l.026-.021a.632.632,0,0,0,.013.1.557.557,0,0,1-.145.555c-.019-.058-.033-.106-.044-.144a.381.381,0,0,0-.086-.185.225.225,0,0,0-.071-.013c-.073,0-.112.051-.162.115a.668.668,0,0,1-.161.161.608.608,0,0,0-.188-.2.772.772,0,0,1-.075-.062.346.346,0,0,0-.066.1.341.341,0,0,1-.066.1,1.1,1.1,0,0,1,.325.13l0,0a.612.612,0,0,0-.156.123c-.041.041-.074.074-.107.074v.526c0,.066.067.066.131.066s.064-.056.074-.115.028-.156.127-.156a.262.262,0,0,1,.062.009.4.4,0,0,0-.066.263.155.155,0,0,0,.139.1.284.284,0,0,0,.189-.1,2.059,2.059,0,0,1-.066-.263,2.057,2.057,0,0,0-.066-.263h.066c.065.065.131.132.2.132a.227.227,0,0,0,.1.027.456.456,0,0,0,.165-.046c.036-.014.077-.031.126-.047.054.081.008.185-.037.286a.347.347,0,0,0-.049.259.231.231,0,0,0,.151.111,6.474,6.474,0,0,0,.788-.985c.074.3.054.472-.066.591.065.1.132.148.2.148s.132-.05.2-.148a1.623,1.623,0,0,1,.294-.446c.054-.067.109-.135.166-.21-.023-.035-.048-.067-.073-.1a.414.414,0,0,1-.059-.558.756.756,0,0,1,.212.116.314.314,0,0,0,.182.081c.079,0,.087-.072.094-.142a.209.209,0,0,1,.037-.121,3.278,3.278,0,0,0,.449-.591,4.475,4.475,0,0,1,.273-.394c0-.066.067-.066.132-.066.137-.068.195-.138.131-.328a.415.415,0,0,0,.394-.328,2,2,0,0,1,.394-.722c0-.029.038-.045.087-.065a.31.31,0,0,0,.175-.132,1.729,1.729,0,0,1,.591-.985.333.333,0,0,0,.065-.131.329.329,0,0,1,.066-.132l.066-.066a.95.95,0,0,0,.544-.486,1.108,1.108,0,0,1,.244-.3,1.857,1.857,0,0,0,.063-.3,1.1,1.1,0,0,1,.068-.29,1.013,1.013,0,0,1,.262-.393,1.028,1.028,0,0,0,.308-.616,1.543,1.543,0,0,1,.152-.436.242.242,0,0,0,.066-.2l-.066-.066a3.039,3.039,0,0,0-.853,1.313l0,0c-.129-.129-.194-.194-.194-.259l-.036.071c-.078.152-.078.152.028.252l.074.071c.132.065.132.2.132.328h-.051a.632.632,0,0,0-.343.065,1.031,1.031,0,0,1-.394.62,2.105,2.105,0,0,0-.329.366v-.328a3.427,3.427,0,0,0,.46-.986c.129-.129.263-.262.263-.394a1.406,1.406,0,0,1,.46-.788,1.336,1.336,0,0,0,.525-.919.582.582,0,0,1,.328-.526.134.134,0,0,0,.04.09.131.131,0,0,0,.091.042c.174-.523.193-.532.378-.618l.082-.039c-.066-.331.14-.464.394-.591a.683.683,0,0,1,.132-.657.947.947,0,0,1,.356-.273,2.523,2.523,0,0,0,.3-.187,1.362,1.362,0,0,0,.232-.43,2.215,2.215,0,0,1,.293-.555,2.075,2.075,0,0,0,.415-.726,4.251,4.251,0,0,1,.241-.522,2.569,2.569,0,0,0,.264-.33,2.592,2.592,0,0,1,.262-.327A.467.467,0,0,1,38.7,14.6a.791.791,0,0,0,.041-.218,1.162,1.162,0,0,0,.328-.525,3.4,3.4,0,0,1,.161-.329,1.5,1.5,0,0,0,.233-.657.519.519,0,0,1,.065-.2c.107-.142.216-.268.331-.4.1-.116.206-.237.326-.387a.233.233,0,0,1,.065-.131c0-.2,0-.328.132-.394h.066a.92.92,0,0,1,.19-.62,1.1,1.1,0,0,0,.2-.562c0-.126.062-.263.2-.263a.43.43,0,0,1,.234.08c.029.017.059.034.094.052.022-.11.037-.221.051-.329a2.678,2.678,0,0,1,.145-.656,1.033,1.033,0,0,1,.248-.263c.05-.043.1-.087.146-.131a.291.291,0,0,1,.06-.138c.022-.035.046-.075.071-.125a2.744,2.744,0,0,1,.72-.983c.133-.067.133-.067.133-.133a.915.915,0,0,1,.242-.43.727.727,0,0,0,.152-.227,1.282,1.282,0,0,1,.126-.054A.346.346,0,0,0,43.6,6.5a.342.342,0,0,1,.131-.263.243.243,0,0,1,.066-.2,1.142,1.142,0,0,0,.328-.919c0-.137.072-.2.2-.263.05-.05.105-.1.159-.142.155-.131.3-.254.3-.449a.988.988,0,0,1,.15-.056,1.093,1.093,0,0,0,.31-.141l.054-.139a3.367,3.367,0,0,1,.471-.912.288.288,0,0,1,.142-.215.723.723,0,0,0,.055-.048l.2-.2a3.738,3.738,0,0,1,.131-.395,3.738,3.738,0,0,0,.131-.393l.2-.2a.639.639,0,0,0,.459-.459.34.34,0,0,1,.132-.263c0-.062.13-.263.2-.263A.5.5,0,0,0,47.74.46.658.658,0,0,1,48.4.132,2.005,2.005,0,0,0,48.872.06,1.666,1.666,0,0,1,49.25,0a.526.526,0,0,1,.262.117A1.27,1.27,0,0,0,49.645.2a5.348,5.348,0,0,0,1.379.657.4.4,0,0,0,.263.065.489.489,0,0,1,.389.153.435.435,0,0,1,.071.372.29.29,0,0,0,.066.328,1.369,1.369,0,0,1,.393.525,2.193,2.193,0,0,0,.248.633c.026.05.053.1.08.156a.637.637,0,0,0,.1.133.3.3,0,0,1,.1.2.89.89,0,0,1-.018.153c-.024.139-.045.259.149.307a1.7,1.7,0,0,1-.221.254.9.9,0,0,0-.172.2.3.3,0,0,0-.2.328.327.327,0,0,1-.066.2l-.048.036a1.355,1.355,0,0,0-.543.621.879.879,0,0,0-.282.419c-.016.039-.031.076-.046.106a.243.243,0,0,1-.066.2A1.672,1.672,0,0,1,50.7,6.9l0,0c.07.141.1.206.085.246s-.063.05-.153.08A4.263,4.263,0,0,1,50.235,8.6a3.739,3.739,0,0,1-.427.263,3.743,3.743,0,0,0-.427.263,1.061,1.061,0,0,1-.224.043c-.073,0-.12-.032-.235-.108a1.43,1.43,0,0,1,.264-.432.89.89,0,0,0,.261-.553l.007,0a3.269,3.269,0,0,1,.453-.193c.044-.263.088-.47.132-.671.022-.1.044-.205.066-.314-.094-.094-.157-.157-.261-.157a.431.431,0,0,0-.134.026.52.52,0,0,0-.328.394.235.235,0,0,1-.033.1.235.235,0,0,0-.033.1c-.015.015-.034.03-.054.047a.289.289,0,0,0-.143.216,1.257,1.257,0,0,1-.2.593c-.022.042-.044.085-.067.13v.066a2.29,2.29,0,0,0-.131.657.12.12,0,0,0-.033.1.121.121,0,0,1-.033.1l-.132.132c-.129.517-.07.654.394.919,0,.183-.093.206-.176.226a.184.184,0,0,0-.087.036.835.835,0,0,0-.263.394,1.3,1.3,0,0,1,.065.328.238.238,0,0,0-.1.033.235.235,0,0,1-.1.033.337.337,0,0,1-.262-.1.1.1,0,0,1,0-.1.494.494,0,0,0,.147-.51.9.9,0,0,1-.016-.146.614.614,0,0,0,.132-.722l-.137.083a4.409,4.409,0,0,1-.717.377c-.065,0-.132.067-.2.132a3.3,3.3,0,0,0-.066.394,3.3,3.3,0,0,1-.066.394.29.29,0,0,0,.175-.083.217.217,0,0,1,.122-.063c.051,0,.1.046.163.146,0,.051-.058.072-.119.094s-.116.042-.13.089.006.084.052.145a.426.426,0,0,1,.19-.069.886.886,0,0,0,.2-.062c-.065.328-.065.328-.525.394a.823.823,0,0,0-.025-.136,1.312,1.312,0,0,1-.041-.258.963.963,0,0,1-.532.422,1.278,1.278,0,0,0-.387.234c0,.069-.068.2-.132.2a3.859,3.859,0,0,0-.547.287c-.106.063-.206.123-.307.173a.861.861,0,0,0-.3.393c-.011.024-.022.046-.032.067a1.658,1.658,0,0,1-.657,1.182,1.253,1.253,0,0,1-.307.36,1.312,1.312,0,0,0-.219.231,3.746,3.746,0,0,0-.263.788,1.326,1.326,0,0,0-.089.1c-.054.066-.082.1-.174.1a.568.568,0,0,0-.482.324.734.734,0,0,1-.174.2,1.219,1.219,0,0,0-.1.121.809.809,0,0,1-.224.208l-.012.012a10.969,10.969,0,0,1-.842.776V16.417c0-.131,0-.328.2-.394a1.436,1.436,0,0,0-.2-.328c.066-.131.132-.2.2-.2v-.066c-.2-.132-.2-.324-.2-.591V13.068c-.008.053-.015.1-.022.153a3.473,3.473,0,0,0-.043,1.095,3.2,3.2,0,0,1-.033.394,3.205,3.205,0,0,0-.033.394,5.032,5.032,0,0,1-.065.985v.2a1.087,1.087,0,0,1,.053.533,1.358,1.358,0,0,0,.012.387,1.27,1.27,0,0,1-.394,1.182,3.875,3.875,0,0,1-.287.548c-.063.106-.122.206-.173.306V19.7a1.484,1.484,0,0,1-.066,1.051,2.265,2.265,0,0,0-.066.591,1.948,1.948,0,0,1-.131.919c-.064.064-.2.2-.2.328a1.185,1.185,0,0,1-.328.46,2.471,2.471,0,0,0-.394.459,1.515,1.515,0,0,1-.525.788.086.086,0,0,0-.066.033.086.086,0,0,1-.066.033c-.064.194-.131.394-.394.394a1.626,1.626,0,0,1-.591.263.365.365,0,0,0-.072.162.927.927,0,0,1-.059.166.838.838,0,0,1-.394.263c-.025,0-.053,0-.082,0s-.063-.006-.095-.006a.2.2,0,0,0-.217.142c0,.065-.2.13-.2.131a.42.42,0,0,0-.159-.031.859.859,0,0,0-.375.121.755.755,0,0,1-.319.107c-.066,0-.066,0-.132-.132a.129.129,0,0,0-.131.132v.591a.446.446,0,0,0,.112.033c.055.011.1.021.121.058s.005.089-.036.171a.333.333,0,0,0-.131-.065.332.332,0,0,1-.132-.066c-.093.138-.023.211.073.312a1.078,1.078,0,0,1,.124.147.326.326,0,0,1-.224.117.348.348,0,0,1-.178-.066.261.261,0,0,0-.123-.051.5.5,0,0,0-.066.328h.2a.9.9,0,0,1-.066.986,1.144,1.144,0,0,0-.263-.328c-.064,0-.13.13-.131.131a.511.511,0,0,1-.033.131.511.511,0,0,0-.033.131h-.394c-.1.2-.148.3-.23.3s-.2-.1-.427-.3c0,.4.14.461.854.591a.9.9,0,0,1-.328.853.232.232,0,0,0-.132.066.771.771,0,0,1-.178.554,1.117,1.117,0,0,0-.151.3h-.328c-.133.033-.221.067-.251.133s-.01.134.054.261c.132.2.132.2-.131.394l0-.005a2.72,2.72,0,0,1-.259-.651h.005a.474.474,0,0,0,.159-.032.489.489,0,0,1,.165-.033.33.33,0,0,1-.146-.131.406.406,0,0,0-.051-.065l-.084.048c-.384.217-.433.245-.31.675a.241.241,0,0,0-.2-.066.206.206,0,0,1-.018.072c-.009.023-.016.041-.009.051s.013.009.026.009a.512.512,0,0,1,.066.525v.394a.347.347,0,0,1,.1-.066.347.347,0,0,0,.1-.066c0,.033.033.066.066.1s.066.066.066.1a1.429,1.429,0,0,0-.264.415,1.985,1.985,0,0,1-.13.242,4.693,4.693,0,0,1-.591.459.3.3,0,0,0-.2.328.729.729,0,0,1-.2.591.429.429,0,0,0-.033.2.746.746,0,0,1-.033.254.869.869,0,0,0-.229-.211.552.552,0,0,1-.231-.248l.1-.048a.894.894,0,0,0,.493-.412.343.343,0,0,0-.263-.132c.033-.131.066-.231.1-.327s.066-.2.1-.329l-.008.014c-.126.187-.256.38-.32.38-.051.025-.091.05-.126.072a.29.29,0,0,1-.137.06c-.263,0-.263,0-.263.394.263,0,.263,0,.328.328a4.122,4.122,0,0,0-.591.263.882.882,0,0,1-.066.328c-.066-.132-.2-.132-.328-.132v.263c.075.075.107.135.1.184-.016.069-.121.109-.226.145.052.129.1.241.151.339a2.368,2.368,0,0,1,.177.449.225.225,0,0,1-.071.013c-.073,0-.112-.051-.162-.115a.673.673,0,0,0-.161-.161.376.376,0,0,1-.062.191.216.216,0,0,0,0,.269c.038.019.055.039.051.057-.01.043-.139.074-.314.074a.792.792,0,0,1,.041-.217.468.468,0,0,0,.025-.111.434.434,0,0,0-.189-.049.192.192,0,0,0-.139.049.542.542,0,0,0-.066.46c.128.129.13.259.072.561Zm-.466-1.021,0,0a.85.85,0,0,1,.193.13c.061-.061.132-.131.132-.2l-.132-.066h0c-.069,0-.2.067-.2.131Zm5.2-6.267a.111.111,0,0,0-.083.029h0a.038.038,0,0,0-.037.026c-.019.047.01.143.1.236a.778.778,0,0,0,.135-.176.387.387,0,0,1,.062-.087.369.369,0,0,1-.074-.013A.487.487,0,0,0,33.639,30.244Zm-.674-1.021c.037.075-.012.151-.059.225a.345.345,0,0,0-.072.169c0,.2.074.263.328.263a.771.771,0,0,0,.038.239.527.527,0,0,1,.028.156c.328-.2.328-.2.328-.657-.049.1-.172.123-.342.157-.055.011-.118.024-.184.04,0-.132,0-.2.132-.263,0-.2,0-.263.066-.328h-.263Zm-5.006.512a1.159,1.159,0,0,0-.314.079c.031.016.066.031.1.047a1.174,1.174,0,0,1,.358.215.766.766,0,0,0-.028-.264A.113.113,0,0,0,27.96,29.734Zm1.394-.25h0a.065.065,0,0,1-.066.066.233.233,0,0,0,.033.1.235.235,0,0,1,.033.1l.008,0a.623.623,0,0,1,.189-.061l-.1-.1-.1-.1Zm4.925-1.313c-.107,0-.127.044-.166.131-.009.02-.019.042-.031.066a.4.4,0,0,0,.121.026c.068,0,.088-.042.121-.113l.021-.044a.077.077,0,0,0-.019-.048A.062.062,0,0,0,34.278,28.171Zm-.722-.526c-.263.2-.263.2-.132.394C33.556,27.908,33.556,27.908,33.556,27.646Zm.853-.985c-.246.148-.2.3-.129.5a1.838,1.838,0,0,1,.064.224.53.53,0,0,0,.328-.164A.529.529,0,0,1,35,27.055v-.263l0,.005a.928.928,0,0,1-.26.192c-.062-.186-.124-.328-.328-.328h0Zm-.591.262h0c-.033.066-.083.149-.131.23s-.1.164-.131.23c.322-.054.293-.24.272-.376a.587.587,0,0,1-.009-.084Zm1.117-.656a.065.065,0,0,0-.066.066v.328A.493.493,0,0,0,35,26.4c0-.066,0-.066-.066-.132ZM26.4,25.151h0a1.126,1.126,0,0,0-.066.164,1.141,1.141,0,0,1-.066.164c-.057.038-.085.073-.085.106s.051.082.1.114a.434.434,0,0,1,.055.043,1.6,1.6,0,0,1,.219-.177.909.909,0,0,0,.11-.085.277.277,0,0,1,.083-.177.161.161,0,0,0,.049-.086h0c-.2,0-.326,0-.391-.066Zm0-.591h.131a.329.329,0,0,1-.005.2c-.023.108-.047.221.071.26,0-.066.066-.132.2-.263.066-.066.132-.066.263-.066v-.132h-.526v-.131l-.263-.263h-.014a.354.354,0,0,0-.314.131v.328a1.013,1.013,0,0,1,.1.008,1.214,1.214,0,0,0,.128.009.3.3,0,0,0,.23-.082Zm9.259-.2h0a.513.513,0,0,0-.037.189.645.645,0,0,1-.094.336.243.243,0,0,1,.2.066v-.525l-.066-.066Zm.263-1.182c-.194.26-.2.324.132.722a.69.69,0,0,0-.061-.435A.734.734,0,0,1,35.92,23.18Zm1.491.073a.225.225,0,0,0-.178.125.663.663,0,0,0,.1.14.686.686,0,0,1,.16.255c.149-.112.224-.211.218-.289a.134.134,0,0,0-.086-.105A.333.333,0,0,0,37.411,23.253Zm.348-.86h0a.555.555,0,0,0-.442.357l-.018.036a.078.078,0,0,0-.016.1.437.437,0,0,0,.082.1c.042-.064.079-.122.114-.178.072-.116.147-.236.281-.413Zm-13.987.459a.065.065,0,0,0-.066.066l.066.066a.522.522,0,0,0,.2-.066.2.2,0,0,1-.135-.041A.1.1,0,0,0,23.772,22.852Zm1.773-2.1c-.2.2-.13.33,0,.526.037-.037.074-.069.106-.1.062-.054.107-.092.109-.128a.05.05,0,0,0-.017-.038c0-.066-.066-.132-.2-.263Zm.328,0a.391.391,0,0,0,.066.46.265.265,0,0,0,.092-.184.421.421,0,0,0-.157-.276Zm9.587-.263h0c-.131.132-.131.195-.131.46.211-.212.188-.346.131-.46Zm-9.522-2.364c-.033.1-.066.214-.1.327s-.066.231-.1.33a.108.108,0,0,0,.01.044c.011.027.017.041-.076.087a.193.193,0,0,0-.146.151.271.271,0,0,0,.146.243.256.256,0,0,1,.06.243.3.3,0,0,1-.192.216,5.492,5.492,0,0,1,.263.985l.131-.131.132-.132a.332.332,0,0,0,.131.066.332.332,0,0,1,.131.066.479.479,0,0,0,.132-.526c-.066.033-.149.083-.23.131s-.164.1-.23.132a1.161,1.161,0,0,0,.066-.394.974.974,0,0,1,.394-.066V19.5c-.066.066-.2.066-.394.066.02-.059.033-.112.047-.163a1.051,1.051,0,0,1,.15-.363L26,18.781a1.646,1.646,0,0,1,.085-.146,3.192,3.192,0,0,0,.177-.313.91.91,0,0,1,.06.167.364.364,0,0,0,.072.161.7.7,0,0,1,.2-.328c.105-.07.148-.118.148-.164s-.043-.094-.148-.164h-.066a.238.238,0,0,1-.024.086.436.436,0,0,0-.041.177,1.241,1.241,0,0,1-.526-.132ZM39.2,20.172c-.043,0-.066.066-.066.185a1.758,1.758,0,0,0-.263.328,1.437,1.437,0,0,1,.2-.108.354.354,0,0,0,.2-.155c.065,0,.066-.13.066-.131C39.282,20.212,39.238,20.172,39.2,20.172Zm-.46-.012a.2.2,0,0,1-.041.135.1.1,0,0,0-.025.062.063.063,0,0,1,.066.065c0-.064.128-.131.2-.131-.027,0-.043-.023-.062-.049A.153.153,0,0,0,38.744,20.16Zm-2.89-.657c-.267.4-.261.466-.131.854a1.444,1.444,0,0,1,.123-.313.508.508,0,0,0,.074-.213c.032-.016.049-.032.054-.051s-.012-.064-.04-.113A.829.829,0,0,1,35.854,19.5Zm-9.062-.132h0c0,.331.07.4.328.46a.086.086,0,0,1,.033-.066.086.086,0,0,0,.033-.066.431.431,0,0,0-.041-.176.237.237,0,0,1-.025-.087.469.469,0,0,1-.111-.025.792.792,0,0,0-.217-.041Zm13.2-.443a.283.283,0,0,0-.261.115.736.736,0,0,0,.286.135c.08,0,.13-.083.239-.266a.273.273,0,0,1-.118.02l-.066,0h-.006ZM26.651,17.113a.142.142,0,0,0-.126.051.107.107,0,0,0,.005.106.448.448,0,0,1-.062.363,1.384,1.384,0,0,0-.069.162.5.5,0,0,1,.263-.066.324.324,0,0,1,.066-.131.325.325,0,0,0,.066-.131c-.063-.016-.1-.04-.112-.073-.019-.053.029-.12.068-.174a.2.2,0,0,0,.045-.081A.455.455,0,0,0,26.651,17.113Zm-.778-.04h0s-.036.036-.028.055.012.011.028.011a.845.845,0,0,1-.065.46c0,.066.067.132.131.2H26v-.657a.232.232,0,0,0-.132-.066Zm.46-.394a.47.47,0,0,1-.025.111.792.792,0,0,0-.041.217.519.519,0,0,1,.2-.065c.033-.1.034-.17,0-.213A.155.155,0,0,0,26.333,16.679Zm-.263-.657c-.066.066-.066.066-.132.066a.508.508,0,0,0,.033.131.508.508,0,0,1,.033.131h.017c.058,0,.114-.005.114-.065a.431.431,0,0,0-.041-.176A.237.237,0,0,1,26.07,16.023Zm-.263-.263h0c0,.067.07.135.131.2V15.3a.294.294,0,0,1-.066.2.532.532,0,0,1-.1.011.586.586,0,0,1-.274-.076l-.025-.013a.43.43,0,0,0-.189-.064.2.2,0,0,0-.065.011,2.319,2.319,0,0,0,.263.591,1.443,1.443,0,0,1,.327-.2ZM27,15.145a.1.1,0,0,0-.072.025.346.346,0,0,1,.078.137,1.3,1.3,0,0,0,.054.125.491.491,0,0,0,.164-.033.487.487,0,0,1,.164-.033A.655.655,0,0,0,27,15.145Zm.782-.632a2.093,2.093,0,0,0-.06.227.951.951,0,0,1-.072.233h.006c.155,0,.246-.03.276-.093S27.915,14.684,27.777,14.513Zm-.722-.394c-.237.158-.363.32-.354.457a.247.247,0,0,0,.158.2l.01-.062c.056-.34.066-.4.252-.464a.474.474,0,0,0,.213.056.61.61,0,0,0,.251-.07c.04-.018.082-.036.127-.051a.5.5,0,0,0-.263-.066.365.365,0,0,1-.162.072.92.92,0,0,0-.166.059.088.088,0,0,0-.033-.065A.086.086,0,0,1,27.055,14.119Zm.722-1.248v.263c-.05.025-.09.05-.125.071a.293.293,0,0,1-.137.06l0,.007a1.1,1.1,0,0,1,.128.321c0,.263,0,.263.2.263.131,0,.131,0,.2.131a.086.086,0,0,1-.033.066.086.086,0,0,0-.033.066c-.065.033-.1.066-.1.1s.033.066.1.1h.2a.243.243,0,0,0,.065-.2.976.976,0,0,1,0-.854l-.2-.2A.332.332,0,0,1,28.171,13a.332.332,0,0,0,.131-.066l.066-.131c-.155-.258-.025-.355.1-.447a.848.848,0,0,0,.1-.078,1.244,1.244,0,0,0-.278.132c-.036.021-.072.044-.116.065a.6.6,0,0,1,.2-.591v.2h.05c.158,0,.219-.005.279-.065a.594.594,0,0,0-.17-.337c-.1-.12-.193-.245-.158-.385h-.2a1.476,1.476,0,0,0-.066-.46,1.44,1.44,0,0,0,.525.066v.46c.158,0,.174-.072.189-.142a.151.151,0,0,1,.074-.121.926.926,0,0,0-.2-.328c-.125-.025-.23-.05-.322-.072a1.662,1.662,0,0,0-.334-.06v0c0,.071,0,.259-.066.323a.592.592,0,0,0,0,.722.777.777,0,0,0,.135-.176.387.387,0,0,1,.062-.086c-.066.394-.066.394-.394.591a.23.23,0,0,0-.136.157.2.2,0,0,0,.07.171,1.75,1.75,0,0,0,.394.328v.2Zm-5.516.92v.525h.066V13.79Zm6.3-.066s-.063.032-.058.051.022.015.058.015a.059.059,0,0,0,.015.043.173.173,0,0,0,.116.023.064.064,0,0,1,.066-.066A.242.242,0,0,0,28.566,13.725Zm-1.576-.2a1.458,1.458,0,0,0,.1.163,1.453,1.453,0,0,1,.1.165.4.4,0,0,0,.05-.065.328.328,0,0,1,.146-.132c-.076-.025-.132-.041-.181-.054A1.048,1.048,0,0,1,26.989,13.528Zm1.839-.854c-.033,0-.05.033-.066.066s-.033.066-.066.066a.064.064,0,0,1,.066.065h.016c.051,0,.061,0,.181-.065-.064,0-.128-.126-.131-.132Zm-1.379-1.247h0c-.066.065-.263.065-.328.065v.46a.716.716,0,0,0,.328.066.5.5,0,0,1-.05.191c-.041.1-.076.185.05.269.138-.139.123-.277-.066-.591a.2.2,0,0,1,.062-.12.228.228,0,0,0,0-.339Zm17.8-.328h0a1.1,1.1,0,0,1-.019.169.828.828,0,0,0,.085.619c0-.087,0-.168.009-.246a.874.874,0,0,0-.075-.542Zm-19.306.263h0v.393A.418.418,0,0,0,25.939,11.361Zm1.511-1.248h0l.131.13a.512.512,0,0,1-.2.066,1.154,1.154,0,0,0-.13.264.363.363,0,0,1-.067.131.972.972,0,0,0,.393.066l0-.012a4.494,4.494,0,0,1,.194-.513A1.678,1.678,0,0,1,27.45,10.113Zm.722.131h0a.412.412,0,0,1-.023.116c-.027.089-.05.166.088.212a.206.206,0,0,0,.132-.066.152.152,0,0,0,.017-.128c-.021-.052-.085-.092-.214-.135ZM45.245,9h0V10.31A2.266,2.266,0,0,0,45.245,9ZM28.99,9.76a.693.693,0,0,0-.162.024.608.608,0,0,0,.218.135.334.334,0,0,1,.111.062.252.252,0,0,0-.048-.182A.158.158,0,0,0,28.99,9.76ZM26.858,7.88a1.817,1.817,0,0,1-.033.3,1.817,1.817,0,0,0-.033.3.209.209,0,0,0,.2.2h.263a.516.516,0,0,0,.263-.263.5.5,0,0,1-.328-.132c-.066-.066-.066-.263-.066-.394Zm-.394.066a.065.065,0,0,0-.066.066h0c-.011,0-.018,0-.021.008s.01.044.036.089c.016.027.035.06.055.1a.2.2,0,0,1,.041-.135.1.1,0,0,0,.024-.061A.065.065,0,0,0,26.464,7.946ZM27.573,7.8c-.091,0-.1.065-.116.135s-.021.112-.073.138h.005c.192,0,.257-.066.257-.261A.309.309,0,0,0,27.573,7.8Zm.27-.384a.506.506,0,0,0-.132.2.077.077,0,0,0,.019.048.062.062,0,0,0,.047.018c0-.038.022-.054.066-.086a1.025,1.025,0,0,0,.131-.111h0C27.865,7.48,27.843,7.447,27.843,7.42Zm-.678-.36c-.059,0-.13.092-.176.229a.47.47,0,0,0,.2.394.537.537,0,0,1,.328-.328.915.915,0,0,0-.263-.2C27.231,7.094,27.2,7.06,27.165,7.06Zm.809-.3a.374.374,0,0,1-.111.219c-.046.057-.09.11-.082.161a.124.124,0,0,0,.062.08.552.552,0,0,0,.459.132A.689.689,0,0,0,27.974,6.764ZM50.564,6.3a.4.4,0,0,0-.35.205.45.45,0,0,1-.044.057c0,.066.067.133.132.2A1.056,1.056,0,0,0,50.564,6.3ZM27.445,5.648c-.013,0-.021,0-.024.011s.027.053.028.054a.058.058,0,0,0,.015.043.174.174,0,0,0,.116.023.291.291,0,0,0,.066-.328c-.131.066-.2.132-.2.2h0Zm-.324-.264a.3.3,0,0,1-.139.1c-.067.034-.137.069-.147.127s.022.1.088.165C27.121,5.713,27.121,5.515,27.121,5.385Zm24.148-1.4c-.028,0-.061.032-.114.086-.036.072-.074.144-.111.215A2.246,2.246,0,0,0,50.7,5.319a.784.784,0,0,1-.009.1c-.012.092-.023.179.074.228a2.584,2.584,0,0,1,.263-.2.15.15,0,0,1-.071-.1.315.315,0,0,1,.089-.213.21.21,0,0,0,.048-.085l.131-.131a2.474,2.474,0,0,0,.066-.657.087.087,0,0,0,.066-.033.086.086,0,0,1,.066-.033C51.343,4.054,51.309,3.985,51.269,3.985ZM30.338,36.511h0l-.064-.064a.293.293,0,0,0,.065-.186c0,.02.008.119.065.12-.065,0-.065.066-.065.129Zm-.459-.263v0c.045-.227.059-.3.215-.3a2.545,2.545,0,0,1,.31.034c-.04.02-.087.04-.137.062a2.381,2.381,0,0,0-.387.2Zm1.379-.394h-.066a.616.616,0,0,1,.123-.155c.041-.041.074-.074.074-.107.066,0,.066,0,.066.066,0,.038-.022.054-.066.086a1.021,1.021,0,0,0-.131.111Zm-.721,0h0c0-.021-.007-.127-.066-.127a1.223,1.223,0,0,0,.263-.591c.132.088.165.168.17.219a.133.133,0,0,1-.039.109c-.034.034-.068.063-.1.092A.65.65,0,0,0,30.537,35.851Zm2.231-3.608h0c-.065,0-.065,0-.065-.066a.5.5,0,0,1-.065-.328.826.826,0,0,1,.2.132.509.509,0,0,1-.033.131.519.519,0,0,0-.033.131Zm.46-.919h-.066a.952.952,0,0,0,.132-.2c.065,0,.065,0,.065.132a.086.086,0,0,0-.065.033A.086.086,0,0,1,33.228,31.324Zm-6.239-3.678c-.133,0-.146-.087-.161-.188a.467.467,0,0,0-.036-.14.615.615,0,0,1,.187-.039c.1,0,.142.054.142.171a.094.094,0,0,1,.017.106A.156.156,0,0,1,26.989,27.646Zm9.259-.263h0l-.2-.2h.065c.038,0,.1,0,.132.042a.174.174,0,0,1,0,.154ZM32.31,24.625h0a.7.7,0,0,1,.327-.13C32.637,24.625,32.637,24.625,32.31,24.625Zm-4.73-.656h0a.248.248,0,0,1-.1-.033.235.235,0,0,0-.1-.033.346.346,0,0,0,.078-.137,1.3,1.3,0,0,1,.054-.125l.065.132v.2Zm.263-.395h0c-.2-.2-.2-.2,0-.524v.525Zm-.92-.066h0V23.18a.5.5,0,0,1,.263.066.511.511,0,0,1-.262.262Zm.59-2.038c-.065-.127-.13-.129-.13-.129.066-.066.066-.066.066-.132a.086.086,0,0,1,.066.033.085.085,0,0,0,.065.033c-.065.066-.065.066-.065.194Zm.137-.33h0c.082-.128-.006-.2-.091-.272a.414.414,0,0,1-.109-.117h.394v0a.312.312,0,0,1-.066.193C27.777,21.013,27.71,21.081,27.65,21.14Zm.193-.455v-.263h.006c.087.03.134.046.141.074s-.04.081-.146.187Zm15.891-3.415h-.066v-.263c.1.051.085.143.073.21a.326.326,0,0,0-.007.052Zm3.086-3.809h-.066v-.2a.4.4,0,0,1,.263-.065.312.312,0,0,0-.056.094.306.306,0,0,1-.141.169Zm.985-2.692h-.131a.347.347,0,0,0,.065-.1.345.345,0,0,1,.066-.1h.066a.243.243,0,0,1-.066.2Zm1.117-1.116a.291.291,0,0,1-.138-.06c-.035-.022-.075-.046-.125-.071a.5.5,0,0,1,.066-.263.232.232,0,0,0,.131-.066.607.607,0,0,1,.2.189.77.77,0,0,0,.061.074c.031,0,.05.008.056.022.015.037-.053.106-.056.109A.241.241,0,0,1,48.922,9.653Zm2.363-2.827c-.065-.193-.065-.193.067-.325v.132a.233.233,0,0,1-.033.1.245.245,0,0,0-.033.095Z" transform="translate(768.768 608.02)" fill="#fc307b" stroke="rgba(0,0,0,0)" stroke-miterlimit="10" stroke-width="1"/>
  </g>
</svg>
